<svg xmlns="http://www.w3.org/2000/svg" width="512" height="512" viewBox="0 0 512 512" version="1.1">
	<path d="M 246.500 41.018 C 228.522 41.431, 215.050 42.171, 212.882 42.864 C 207.941 44.444, 202.794 48.054, 201.239 51.030 C 197.596 58.002, 204.699 66, 214.534 66 C 220.663 66, 222 67.330, 222 73.424 C 222 82.355, 221.699 82.504, 198.668 84.957 C 152.784 89.846, 126.014 96.706, 109.516 107.803 C 95.479 117.245, 94.443 125.076, 105.649 137.056 L 110.418 142.154 108.183 150.827 C 104.420 165.429, 105.396 170.309, 113.871 179.270 L 118.834 184.518 123.961 233.009 C 126.781 259.679, 130.873 297.250, 133.054 316.500 C 135.235 335.750, 138.826 367.925, 141.033 388 C 143.240 408.075, 145.516 426.231, 146.092 428.348 C 148.945 438.835, 170.762 454.023, 192 460.307 C 226.315 470.460, 262.695 471.509, 298.897 463.390 C 317.871 459.134, 330.880 453.267, 343.109 443.448 C 353.138 435.396, 355.463 431.237, 356.875 418.826 C 359.255 397.889, 365.103 341.787, 370.979 283.500 C 374.306 250.500, 378.136 214.500, 379.490 203.500 L 381.952 183.500 385.226 181 C 397.214 171.846, 400.146 163.055, 395.602 149.888 L 392.994 142.332 396.857 138.271 C 401.125 133.785, 405 126.586, 405 123.144 C 405 119.591, 401.373 113.453, 397.279 110.078 C 382.742 98.095, 352.013 89.355, 307.500 84.545 C 299.800 83.712, 291.171 82.771, 288.323 82.453 C 283.521 81.916, 283.008 81.594, 281.223 77.986 C 279.851 75.214, 279.475 73.015, 279.912 70.326 L 280.525 66.555 289.387 65.380 C 296.670 64.415, 298.708 63.747, 300.823 61.631 C 305.476 56.978, 303.539 49.147, 296.696 44.940 C 289.520 40.529, 284.578 40.143, 246.500 41.018 M 219.250 51.597 C 217.003 52.621, 217.934 54.730, 221.250 56.129 C 226.168 58.204, 245.353 57.893, 258.268 55.529 C 266.893 53.950, 268.585 53.377, 266.768 52.649 C 264.257 51.644, 221.238 50.691, 219.250 51.597 M 192.500 99.121 C 180.360 100.048, 159.784 102.876, 159 103.726 C 158.542 104.222, 181.045 103.723, 215 102.484 C 231.816 101.871, 229.542 102.946, 206.500 106.503 C 181.085 110.428, 157.839 116.904, 144.374 123.813 C 140.005 126.054, 139.610 125.846, 154 128.880 C 165.029 131.206, 182.058 133.433, 200.500 134.962 C 207.650 135.554, 216.604 136.308, 220.397 136.636 C 227.284 137.232, 227.293 137.229, 226.621 134.866 C 226.251 133.565, 225.673 130.364, 225.335 127.753 C 224.441 120.826, 229.011 111.921, 237.024 104.979 C 240.311 102.132, 243 99.397, 243 98.901 C 243 97.800, 207.798 97.954, 192.500 99.121 M 299.768 110.400 C 296.615 111.123, 292.003 112.491, 289.518 113.440 C 285.709 114.895, 285.003 115.584, 285.022 117.833 C 285.054 121.708, 288.265 128.047, 291.945 131.500 C 295.110 134.469, 295.255 134.499, 305.822 134.366 C 317.024 134.226, 331.731 132.085, 342.261 129.061 C 352.320 126.173, 370.252 118.847, 369.339 117.998 C 368.878 117.569, 360.850 115.532, 351.500 113.472 C 337.083 110.296, 332.297 109.678, 320 109.407 C 310.487 109.196, 303.528 109.538, 299.768 110.400 M 371.786 140.593 C 357.629 145.481, 335.372 149.598, 304.500 153.039 C 288.689 154.801, 224.782 155.447, 204.429 154.051 C 194.746 153.387, 186.577 153.089, 186.277 153.390 C 185.088 154.579, 188.370 159.962, 192.122 162.978 C 202.011 170.925, 216.250 175, 234.127 175 C 268.331 175, 314.081 167.543, 348 156.439 C 365.979 150.553, 376.694 145.831, 381.750 141.565 C 388.287 136.048, 385.683 135.795, 371.786 140.593 M 372.500 164.727 C 352.525 173.746, 327.031 180.584, 303.993 183.103 C 280.999 185.616, 222.915 182.399, 184.412 176.479 C 175.968 175.180, 158.195 171.009, 150.500 168.520 C 149.400 168.164, 149.728 168.586, 151.228 169.457 C 155.855 172.143, 173.745 177.732, 190 181.567 C 198.525 183.579, 205.950 185.682, 206.500 186.240 C 207.515 187.271, 177.903 186.627, 169.500 185.436 C 163.371 184.567, 167.152 186.472, 177.582 189.506 C 195.646 194.761, 207.385 196.199, 236.628 196.741 C 264.370 197.254, 288.476 196.144, 307.805 193.463 C 346.264 188.128, 384 173.367, 384 163.658 C 384 162.261, 383.663 160.914, 383.250 160.665 C 382.837 160.416, 378 162.244, 372.500 164.727 M 176.003 213.250 C 176.011 216.173, 179.145 232.043, 180.977 238.434 C 182.070 242.248, 182.709 245.623, 182.397 245.934 C 182.085 246.246, 180.679 245.150, 179.273 243.500 C 172.944 236.074, 164.128 227.206, 163.600 227.734 C 163.281 228.053, 163.252 230.606, 163.537 233.407 C 174.347 339.768, 185.686 429.510, 189.228 436.727 C 191.606 441.573, 194.733 442.753, 213.500 445.885 C 238.980 450.137, 238.429 450.121, 238.829 446.618 C 239.010 445.032, 238.436 437.157, 237.553 429.118 C 236.670 421.078, 234.377 397.873, 232.459 377.552 C 228.772 338.501, 228.276 335.469, 224.271 327.517 C 221.130 321.280, 208.711 308.931, 199.750 303.133 C 196.037 300.730, 193 298.182, 193 297.469 C 193 296.757, 196.863 291.337, 201.584 285.424 C 214.478 269.276, 213.748 271.514, 209.037 262.571 C 202.804 250.736, 203.500 245.657, 212.538 237 C 221.189 228.714, 225.178 221.464, 222.125 219.577 C 221.644 219.280, 216.807 218.554, 211.375 217.964 C 205.944 217.374, 196 215.791, 189.279 214.445 C 174.961 211.581, 175.999 211.674, 176.003 213.250 M 251.747 227.750 C 250.888 228.713, 242.055 241.200, 232.119 255.500 C 222.183 269.800, 212.254 284.020, 210.053 287.099 C 202.999 296.973, 198.150 296, 254.393 296 C 295.387 296, 304 295.765, 304 294.649 C 304 293.906, 301.830 290.419, 299.178 286.899 C 296.525 283.380, 288.123 271.725, 280.506 261 C 258.326 229.771, 255.562 226.068, 254.405 226.033 C 253.803 226.015, 252.607 226.787, 251.747 227.750 M 338.344 233.329 C 334.916 235.191, 309.590 257.574, 304.042 263.644 C 301.220 266.733, 299.002 270.116, 299.005 271.331 C 299.008 272.536, 302.999 278.612, 307.983 285 C 312.919 291.325, 316.967 296.979, 316.978 297.565 C 316.990 298.150, 315.487 299.351, 313.639 300.233 C 308.088 302.880, 296.351 310.690, 291.865 314.721 C 286.839 319.238, 280.368 328.919, 279.015 333.945 C 278.479 335.936, 276.453 358.024, 274.513 383.032 C 272.573 408.039, 270.693 432.274, 270.335 436.887 L 269.684 445.273 272.592 444.741 C 277.792 443.788, 307.432 432.919, 309.204 431.315 C 310.152 430.457, 311.608 427.898, 312.440 425.628 C 315.342 417.703, 325.712 352.157, 335.005 283 C 337.776 262.375, 340.478 243.087, 341.009 240.138 C 342.186 233.593, 341.428 231.653, 338.344 233.329" stroke="white" fill="black" fill-rule="evenodd"/>
</svg>